<?xml version="1.0" encoding="UTF-8"?>
<svg id="Layer_3" xmlns="http://www.w3.org/2000/svg" version="1.1" viewBox="0 0 430.15 428.12">
  <!-- Generator: Adobe Illustrator 30.0.0, SVG Export Plug-In . SVG Version: 2.1.1 Build 123)  -->
  <defs>
    <style>
      .st0 {
        fill: #f0e92c;
      }
    </style>
  </defs>
  <path class="st0" d="M318.28,424.46c1.91-28.64-1.88-61.76-24.05-82.43-24.32-22.67-58.29-23.39-88.48-32.42-27.03-8.09-51.1-24.84-58.28-53.41-7.61-30.31-4.35-64.54-23.71-90.95-21.54-29.41-58.76-38.71-93.58-37.62-9.63.3-9.67,15.3,0,15,28.51-.89,59.69,5.13,78.91,28.05,19.66,23.44,16.8,57.48,23.02,85.7,6.27,28.45,25.53,49.36,51.88,61.06,13.59,6.03,27.8,9.46,42.31,12.49s29.94,5.99,43.35,13.1c14.02,7.43,24.02,18.72,29.05,33.84,5.09,15.32,5.65,31.62,4.59,47.6-.64,9.64,14.36,9.6,15,0h0Z"/>
  <path class="st0" d="M213.44,424.63c1.38-19.49-1.96-41.52-17.57-54.97-17.37-14.97-40.64-15.66-61.8-21.19-18.24-4.76-36.11-14.49-41.15-33.94-5.45-21.04-3.75-43.37-18.77-60.87-15.91-18.52-42.37-23.48-65.61-22.86-9.63.26-9.67,15.26,0,15,19-.51,40.48,2.59,53.99,17.34,13.49,14.72,11.2,37.25,15.92,55.38,5.05,19.38,19.77,32.3,37.78,39.76,18.44,7.64,39.05,7.44,57.37,15.16,9.71,4.1,17.68,10.79,21.52,20.8s4.03,20.16,3.31,30.38c-.68,9.63,14.32,9.59,15,0h0Z"/>
  <path class="st0" d="M428.56,424.79c2.71-37.73-3.12-81.37-34.08-106.99-34.15-28.25-79.51-28.75-120.27-40.41-36.12-10.33-70.96-31.58-81.43-69.82-11.06-40.41-6.51-85.55-33.91-120.16-29.54-37.33-80.49-47.69-125.72-46.29-9.63.3-9.67,15.3,0,15,38.44-1.19,81.38,5.89,109.11,34.95,29.25,30.64,25.52,75.92,34.53,114.44,4.43,18.97,13.04,36.08,26.88,49.95,13.19,13.21,29.55,22.56,46.72,29.56,37.43,15.25,80.15,14.02,116.33,32.49,19.18,9.78,33.42,24.77,40.55,45.24s7.78,41.21,6.29,62.04c-.69,9.63,14.31,9.59,15,0h0Z"/>
</svg>